<svg xmlns:svg="http://www.w3.org/2000/svg" xmlns="http://www.w3.org/2000/svg" width="32" height="32" version="1.1" viewBox="0 0 32 32"><g transform="translate(0,-1020.3622)"><path d="m0 1020.4 2.5 9.8L0 1035.1 2.5 1042.5 0 1049.9l2.5 0 9.8-9.8c-1.6-2.1-2.5-4.6-2.5-7.4 0-4.7 2.6-8.7 6.5-10.8l-1.5-1.5-7.4 2.5zm22.2 3.7c-4.8 0-8.6 3.9-8.6 8.6 0 4.8 3.9 8.6 8.6 8.6 4.8 0 8.6-3.9 8.6-8.6 0-4.8-3.9-8.6-8.6-8.6zm8.7 17.3c-2.2 2.2-5.3 3.6-8.7 3.6-2.8 0-5.3-0.9-7.4-2.5l-9.8 9.8 4.9 0 4.9-2.5 4.9 2.5 9.8-2.5L32 1042.5Z" fill="#000"/></g></svg>
