<?xml version="1.0" encoding="UTF-8" standalone="no"?>
<!-- Created with Inkscape (http://www.inkscape.org/) -->

<svg
   xmlns:dc="http://purl.org/dc/elements/1.1/"
   xmlns:cc="http://creativecommons.org/ns#"
   xmlns:rdf="http://www.w3.org/1999/02/22-rdf-syntax-ns#"
   xmlns:svg="http://www.w3.org/2000/svg"
   xmlns="http://www.w3.org/2000/svg"
   xmlns:sodipodi="http://sodipodi.sourceforge.net/DTD/sodipodi-0.dtd"
   xmlns:inkscape="http://www.inkscape.org/namespaces/inkscape"
   width="32"
   height="32"
   id="svg5738"
   version="1.1"
   inkscape:version="0.91+devel+osxmenu r12911"
   sodipodi:docname="favicon.svg"
   viewBox="0 0 32 32"
   inkscape:export-filename="/Users/tristen/dev/mapbox/census/img/favicon.png"
   inkscape:export-xdpi="96"
   inkscape:export-ydpi="96">
  <defs
     id="defs5740" />
  <sodipodi:namedview
     id="base"
     pagecolor="#ffffff"
     bordercolor="#666666"
     borderopacity="1.0"
     inkscape:pageopacity="0.0"
     inkscape:pageshadow="2"
     inkscape:zoom="5.6568543"
     inkscape:cx="28.291259"
     inkscape:cy="26.288695"
     inkscape:document-units="px"
     inkscape:current-layer="layer1"
     showgrid="false"
     inkscape:window-width="1280"
     inkscape:window-height="751"
     inkscape:window-x="2"
     inkscape:window-y="23"
     inkscape:window-maximized="0"
     inkscape:snap-smooth-nodes="true"
     inkscape:object-nodes="true">
    <inkscape:grid
       type="xygrid"
       id="grid5746"
       empspacing="5"
       visible="true"
       enabled="true"
       snapvisiblegridlinesonly="true" />
  </sodipodi:namedview>
  <metadata
     id="metadata5743">
    <rdf:RDF>
      <cc:Work
         rdf:about="">
        <dc:format>image/svg+xml</dc:format>
        <dc:type
           rdf:resource="http://purl.org/dc/dcmitype/StillImage" />
        <dc:title></dc:title>
      </cc:Work>
    </rdf:RDF>
  </metadata>
  <g
     inkscape:label="Layer 1"
     inkscape:groupmode="layer"
     id="layer1"
     transform="translate(0,-1020.3622)">
    <path
       style="color:#000000;display:inline;overflow:visible;visibility:visible;fill:#000000;fill-opacity:1;fill-rule:nonzero;stroke:none;stroke-width:4.92307711;marker:none;enable-background:accumulate"
       d="m 0,1020.3622 2.4615385,9.8462 L 0,1035.1314 2.4615385,1042.516 0,1049.9007 l 2.4615385,0 9.8461535,-9.8462 c -1.5568,-2.0613 -2.4615382,-4.6023 -2.4615382,-7.3846 0,-4.6611 2.6416862,-8.6801 6.4615382,-10.7692 l -1.538461,-1.5385 -7.3846156,2.4615 z m 22.153846,3.6923 c -4.758141,0 -8.615384,3.857 -8.615384,8.6154 0,4.7581 3.857243,8.6154 8.615384,8.6154 4.75816,0 8.615385,-3.8573 8.615385,-8.6154 0,-4.7584 -3.857225,-8.6154 -8.615385,-8.6154 z m 8.692308,17.3077 c -2.227305,2.2269 -5.293619,3.6154 -8.692308,3.6154 -2.78232,0 -5.323231,-0.9049 -7.384615,-2.4616 l -9.8461541,9.8462 4.9230769,0 4.9230772,-2.4615 4.923077,2.4615 9.846154,-2.4615 L 32,1042.516 Z"
       id="rect14751"
       inkscape:connector-curvature="0"
       sodipodi:nodetypes="cccccccsccccssssscscccccccc" />
  </g>
</svg>
