<svg xmlns:svg="http://www.w3.org/2000/svg" xmlns="http://www.w3.org/2000/svg" width="60" height="60" version="1.1" viewBox="0 0 60 60"><g transform="translate(0,-992.3622)"><path d="M0 8 4 24 0 32 4 44 0 56 4 56 20 40C17.5 36.7 16 32.5 16 28 16 20.4 20.3 13.9 26.5 10.5L24 8 12 12Zm36 6c-7.7 0-14 6.3-14 14 0 7.7 6.3 14 14 14 7.7 0 14-6.3 14-14 0-7.7-6.3-14-14-14zm-7 9 2 0 0 7c0 1 0 1 1 1 1 0 1 0 1-1l0-7 2 0 0 8c0 1-1 2-2 2l-2 0c-1 0-2-1-2-2zm10 0 2 0c2 0 2 2 2 2l0 1-2 0 0-1-1 0c-1 0-1 0-1 1l0 1 2 0c2 0 2 2 2 2l0 2c0 2-2 2-2 2l-2 0c0 0-2 0-2-2l0-1 2 0 0 1 1 0c1 0 1 0 1-1l0-1-2 0c0 0-2 0-2-2l0-2c0 0 0-2 2-2zM50.1 42.1C46.5 45.7 41.5 48 36 48 31.5 48 27.3 46.5 24 44l-16 16 8 0 8-4 8 4 16-4 4-12z" transform="translate(0,992.3622)" fill="#5ca95b"/><path d="m32 1052.4 16-4 4-12-1.9-1.9c-0.9 0.9-1.9 1.7-3 2.4-1.1 0.7-2.2 1.3-3.4 1.8-1.2 0.5-2.4 0.9-3.7 1.2-1.3 0.3-2.6 0.4-4 0.4-1.1 0-2.2-0.1-3.3-0.3-1.1-0.2-2.1-0.4-3.1-0.8-1-0.3-2-0.8-2.9-1.3-0.9-0.5-1.8-1.1-2.7-1.7l-6.6 6.6L32 1044.4Z" fill="#399a64"/></g></svg>
