<?xml version="1.0" encoding="UTF-8" standalone="no"?>
<!-- Created with Inkscape (http://www.inkscape.org/) -->

<svg
   xmlns:dc="http://purl.org/dc/elements/1.1/"
   xmlns:cc="http://creativecommons.org/ns#"
   xmlns:rdf="http://www.w3.org/1999/02/22-rdf-syntax-ns#"
   xmlns:svg="http://www.w3.org/2000/svg"
   xmlns="http://www.w3.org/2000/svg"
   xmlns:sodipodi="http://sodipodi.sourceforge.net/DTD/sodipodi-0.dtd"
   xmlns:inkscape="http://www.inkscape.org/namespaces/inkscape"
   width="60"
   height="60"
   id="svg5738"
   version="1.1"
   inkscape:version="0.91+devel+osxmenu r12911"
   sodipodi:docname="osmus.svg"
   viewBox="0 0 60 60">
  <defs
     id="defs5740" />
  <sodipodi:namedview
     id="base"
     pagecolor="#ffffff"
     bordercolor="#666666"
     borderopacity="1.0"
     inkscape:pageopacity="0.0"
     inkscape:pageshadow="2"
     inkscape:zoom="22.627417"
     inkscape:cx="35.362327"
     inkscape:cy="26.288695"
     inkscape:document-units="px"
     inkscape:current-layer="layer1"
     showgrid="false"
     inkscape:window-width="1280"
     inkscape:window-height="751"
     inkscape:window-x="-9"
     inkscape:window-y="95"
     inkscape:window-maximized="0"
     inkscape:snap-smooth-nodes="true"
     inkscape:object-nodes="true">
    <inkscape:grid
       type="xygrid"
       id="grid5746"
       empspacing="5"
       visible="true"
       enabled="true"
       snapvisiblegridlinesonly="true" />
  </sodipodi:namedview>
  <metadata
     id="metadata5743">
    <rdf:RDF>
      <cc:Work
         rdf:about="">
        <dc:format>image/svg+xml</dc:format>
        <dc:type
           rdf:resource="http://purl.org/dc/dcmitype/StillImage" />
        <dc:title />
      </cc:Work>
    </rdf:RDF>
  </metadata>
  <g
     inkscape:label="Layer 1"
     inkscape:groupmode="layer"
     id="layer1"
     transform="translate(0,-992.3622)">
    <path
       style="color:#000000;display:inline;overflow:visible;visibility:visible;fill:#5ca95b;fill-opacity:1;fill-rule:nonzero;stroke:none;stroke-width:8;marker:none;enable-background:accumulate"
       d="M 0,8 4,24 0,32 4,44 0,56 4,56 20,40 C 17.4702,36.6503 16,32.5212 16,28 16,20.4257 20.29274,13.8948 26.5,10.5 L 24,8 12,12 Z m 36,6 c -7.73198,0 -14,6.2676 -14,14 0,7.7319 6.26802,14 14,14 7.73201,0 14,-6.2681 14,-14 0,-7.7324 -6.26799,-14 -14,-14 z m -7,9 2,0 0,7 c 0,1 0,1 1,1 1,0 1,0 1,-1 l 0,-7 2,0 0,8 c 0,1 -1,2 -2,2 l -2,0 c -1,0 -2,-1 -2,-2 z m 10,0 2,0 c 2,0 2,2 2,2 l 0,1 -2,0 0,-1 -1,0 c -1,0 -1,0 -1,1 l 0,1 2,0 c 2,0 2,2 2,2 l 0,2 c 0,2 -2,2 -2,2 l -2,0 c 0,0 -2,0 -2,-2 l 0,-1 2,0 0,1 1,0 c 1,0 1,0 1,-1 l 0,-1 -2,0 c 0,0 -2,0 -2,-2 l 0,-2 c 0,0 0,-2 2,-2 z M 50.125,42.125 C 46.50563,45.7437 41.52287,48 36,48 31.47873,48 27.34975,46.5296 24,44 l -16,16 8,0 8,-4 8,4 16,-4 4,-12 z"
       transform="translate(0,992.3622)"
       id="rect14751"
       inkscape:connector-curvature="0"
       sodipodi:nodetypes="cccccccsccccsssssccssscccssccssccccsscscsccscccssccscscscccccccc" />
    <path
       style="fill:#399a64;fill-opacity:1;fill-rule:evenodd;stroke:none;stroke-width:1px;stroke-linecap:butt;stroke-linejoin:miter;stroke-opacity:1"
       d="m 32,1052.3622 16,-4 4,-12 -1.875,-1.875 c -0.904843,0.9047 -1.894629,1.7249 -2.957031,2.4453 -1.062403,0.7204 -2.198343,1.3414 -3.392578,1.8496 -1.194235,0.5082 -2.447707,0.9038 -3.748047,1.1719 -1.30034,0.2681 -2.646626,0.4082 -4.027344,0.4082 -1.130318,0 -2.235312,-0.092 -3.310547,-0.2695 -1.075235,-0.1774 -2.120845,-0.4394 -3.128906,-0.7813 -1.008061,-0.3419 -1.979408,-0.7642 -2.908203,-1.2578 -0.928796,-0.4936 -1.814906,-1.059 -2.652344,-1.6914 l -6.558594,6.5586 L 32,1044.3622 Z"
       id="path6676"
       inkscape:connector-curvature="0"
       sodipodi:nodetypes="ccccssssssscccc" />
  </g>
</svg>
