<?xml version="1.0" encoding="UTF-8" standalone="no"?>
<!-- Created with Inkscape (http://www.inkscape.org/) -->

<svg
   xmlns:dc="http://purl.org/dc/elements/1.1/"
   xmlns:cc="http://creativecommons.org/ns#"
   xmlns:rdf="http://www.w3.org/1999/02/22-rdf-syntax-ns#"
   xmlns:svg="http://www.w3.org/2000/svg"
   xmlns="http://www.w3.org/2000/svg"
   xmlns:sodipodi="http://sodipodi.sourceforge.net/DTD/sodipodi-0.dtd"
   xmlns:inkscape="http://www.inkscape.org/namespaces/inkscape"
   width="880"
   height="400"
   id="svg5738"
   version="1.1"
   inkscape:version="0.91+devel+osxmenu r12911"
   sodipodi:docname="splash-illustration.svg"
   viewBox="0 0 880 400">
  <defs
     id="defs5740">
    <clipPath
       clipPathUnits="userSpaceOnUse"
       id="clipPath8260">
      <rect
         ry="1.738281e-05"
         rx="0"
         y="707.36212"
         x="815"
         height="85"
         width="60"
         id="rect8262"
         style="opacity:1;fill:#f2f2f2;fill-opacity:1;stroke:none;stroke-width:2;stroke-linecap:butt;stroke-linejoin:miter;stroke-miterlimit:4;stroke-dasharray:4, 2;stroke-dashoffset:0;stroke-opacity:1;marker:none" />
    </clipPath>
  </defs>
  <sodipodi:namedview
     id="base"
     pagecolor="#ffffff"
     bordercolor="#666666"
     borderopacity="1.0"
     inkscape:pageopacity="0.0"
     inkscape:pageshadow="2"
     inkscape:zoom="0.70710678"
     inkscape:cx="338.51339"
     inkscape:cy="220.72624"
     inkscape:document-units="px"
     inkscape:current-layer="layer1"
     showgrid="false"
     inkscape:window-width="1280"
     inkscape:window-height="751"
     inkscape:window-x="8"
     inkscape:window-y="23"
     inkscape:window-maximized="0"
     inkscape:snap-smooth-nodes="true"
     inkscape:object-nodes="true">
    <inkscape:grid
       type="xygrid"
       id="grid5746"
       empspacing="5"
       visible="true"
       enabled="true"
       snapvisiblegridlinesonly="true" />
  </sodipodi:namedview>
  <metadata
     id="metadata5743">
    <rdf:RDF>
      <cc:Work
         rdf:about="">
        <dc:format>image/svg+xml</dc:format>
        <dc:type
           rdf:resource="http://purl.org/dc/dcmitype/StillImage" />
        <dc:title />
      </cc:Work>
    </rdf:RDF>
  </metadata>
  <g
     inkscape:label="Layer 1"
     inkscape:groupmode="layer"
     id="layer1"
     transform="translate(0,-652.3622)">
    <rect
       style="opacity:1;fill:#003046;fill-opacity:1;stroke:none;stroke-width:0;stroke-linecap:round;stroke-linejoin:round;stroke-miterlimit:4;stroke-dasharray:none;stroke-dashoffset:0;stroke-opacity:1;marker:none"
       id="rect5728"
       width="880"
       height="400"
       x="0"
       y="652.36218" />
    <path
       sodipodi:nodetypes="cc"
       inkscape:connector-curvature="0"
       id="path8095"
       d="m 490,886.3622 0,-61"
       style="opacity:0.5;fill:#000000;fill-rule:evenodd;stroke:#011017;stroke-width:2.5;stroke-linecap:butt;stroke-linejoin:miter;stroke-miterlimit:4;stroke-dasharray:5, 2.5;stroke-dashoffset:0;stroke-opacity:1" />
    <rect
       rx="10.000017"
       ry="10.000017"
       y="920.36218"
       x="140"
       height="50"
       width="80"
       id="rect7997"
       style="opacity:0.5;fill:#011017;fill-opacity:1;stroke:none;stroke-width:4.26401424;stroke-linecap:butt;stroke-linejoin:miter;stroke-miterlimit:4;stroke-dasharray:8.52802865, 4.26401433;stroke-dashoffset:0;stroke-opacity:1;marker:none" />
    <rect
       rx="10.000017"
       style="opacity:1;fill:#000000;fill-opacity:0;stroke:none;stroke-width:4.26401424;stroke-linecap:butt;stroke-linejoin:miter;stroke-miterlimit:4;stroke-dasharray:8.52802865, 4.26401433;stroke-dashoffset:0;stroke-opacity:1;marker:none"
       id="rect7999"
       width="80"
       height="50"
       x="140"
       y="920.36218"
       ry="10.000017" />
    <path
       style="opacity:1;fill:#003046;fill-opacity:1;stroke:none;stroke-width:5.0834322;stroke-linecap:butt;stroke-linejoin:miter;stroke-miterlimit:4;stroke-dasharray:10.16686384, 5.08343191;stroke-dashoffset:0;stroke-opacity:1;marker:none"
       d="m 150,923.3622 c -3.878,0 -7,3.56799 -7,8 l 0,28 c 0,4.43201 3.122,8 7,8 l 60,0 c 3.878,0 7,-3.56799 7,-8 l 0,-28 c 0,-4.43201 -3.122,-8 -7,-8 l -60,0 z m 0,2 60,0 c 2.77,0 5,2.67602 5,6 l 0,28 c 0,3.32398 -2.23,6 -5,6 l -60,0 c -2.77,0 -5,-2.67602 -5,-6 l 0,-28 c 0,-3.32398 2.23,-6 5,-6 z"
       id="rect8001"
       inkscape:connector-curvature="0" />
    <rect
       ry="3.0000176"
       rx="3"
       y="932.36218"
       x="151"
       height="26.000036"
       width="24"
       id="rect8005"
       style="opacity:1;fill:#003046;fill-opacity:1;stroke:none;stroke-width:4.5069418;stroke-linecap:butt;stroke-linejoin:miter;stroke-miterlimit:4;stroke-dasharray:9.01388446, 4.50694223;stroke-dashoffset:0;stroke-opacity:1;marker:none" />
    <rect
       ry="1.0000174"
       rx="1"
       y="935.36218"
       x="179"
       height="4"
       width="30"
       id="rect8007"
       style="opacity:1;fill:#003046;fill-opacity:1;stroke:none;stroke-width:5;stroke-linecap:butt;stroke-linejoin:miter;stroke-miterlimit:4;stroke-dasharray:10, 5;stroke-dashoffset:0;stroke-opacity:1;marker:none" />
    <rect
       ry="1.0000174"
       rx="1"
       y="944.36218"
       x="179"
       height="1.9999652"
       width="30"
       id="rect8009"
       style="opacity:1;fill:#003046;fill-opacity:1;stroke:none;stroke-width:3.53550315;stroke-linecap:butt;stroke-linejoin:miter;stroke-miterlimit:4;stroke-dasharray:7.07100635, 3.53550318;stroke-dashoffset:0;stroke-opacity:1;marker:none" />
    <rect
       style="opacity:1;fill:#003046;fill-opacity:1;stroke:none;stroke-width:3.53550315;stroke-linecap:butt;stroke-linejoin:miter;stroke-miterlimit:4;stroke-dasharray:7.07100635, 3.53550318;stroke-dashoffset:0;stroke-opacity:1;marker:none"
       id="rect8011"
       width="30"
       height="1.9999652"
       x="179"
       y="947.36218"
       rx="1"
       ry="1.0000174" />
    <rect
       ry="1.0000174"
       rx="1"
       y="950.36218"
       x="179"
       height="1.9999652"
       width="30"
       id="rect8013"
       style="opacity:1;fill:#003046;fill-opacity:1;stroke:none;stroke-width:3.53550315;stroke-linecap:butt;stroke-linejoin:miter;stroke-miterlimit:4;stroke-dasharray:7.07100635, 3.53550318;stroke-dashoffset:0;stroke-opacity:1;marker:none" />
    <rect
       style="opacity:1;fill:#003046;fill-opacity:1;stroke:none;stroke-width:2.5819664;stroke-linecap:butt;stroke-linejoin:miter;stroke-miterlimit:4;stroke-dasharray:5.16393291, 2.58196646;stroke-dashoffset:0;stroke-opacity:1;marker:none"
       id="rect8015"
       width="16"
       height="1.9999652"
       x="179"
       y="953.36218"
       rx="1"
       ry="1.0000174" />
    <path
       style="opacity:1;fill:#01202f;fill-opacity:1;stroke:none;stroke-width:7.07108784;stroke-linecap:butt;stroke-linejoin:miter;stroke-miterlimit:4;stroke-dasharray:14.1421766, 7.0710883;stroke-dashoffset:0;stroke-opacity:1;marker:none"
       d="m 163,936.3622 a 6.0000172,6.0000172 0 0 0 -6,6 6.0000172,6.0000172 0 0 0 6,6 6.0000172,6.0000172 0 0 0 6,-6 6.0000172,6.0000172 0 0 0 -6,-6 z m -5,12 c -1.662,0 -3,1.33799 -3,3 l 0,7 16,0 0,-7 c 0,-1.66201 -1.338,-3 -3,-3 l -0.53516,0 a 6.0000172,6.0000172 0 0 1 -4.46484,2 6.0000172,6.0000172 0 0 1 -4.46289,-2 l -0.53711,0 z"
       id="circle8017"
       inkscape:connector-curvature="0" />
    <path
       style="opacity:0.5;fill:#000000;fill-rule:evenodd;stroke:#011017;stroke-width:3;stroke-linecap:butt;stroke-linejoin:miter;stroke-miterlimit:4;stroke-dasharray:6, 3;stroke-dashoffset:0;stroke-opacity:1"
       d="m 179,987.3622 0,-15"
       id="path7995"
       inkscape:connector-curvature="0"
       sodipodi:nodetypes="cc" />
    <path
       style="opacity:1;fill:#40c2fe;fill-opacity:1;stroke:none;stroke-width:0;stroke-linecap:round;stroke-linejoin:round;stroke-miterlimit:4;stroke-dasharray:none;stroke-dashoffset:0;stroke-opacity:1;marker:none"
       d="m 860,812.3622 a 1500,1500 0 0 0 -813.53906,240 l 833.53906,0 0,-239.49414 a 1500,1500 0 0 0 -20,-0.50586 z"
       id="path5730"
       inkscape:connector-curvature="0" />
    <path
       style="fill:#399a64;fill-opacity:1;fill-rule:evenodd;stroke:none;stroke-width:1px;stroke-linecap:butt;stroke-linejoin:miter;stroke-opacity:1"
       d="m 880,829.14931 0,-16.28125 c -6.6655,-0.21308 -13.3323,-0.3817 -20,-0.50586 -50.0103,0.0112 -99.9887,2.52348 -149.748,7.52734 -49.7599,5.00442 -99.2385,12.49468 -148.25,22.44141 -49.0115,9.94673 -97.4943,22.33742 -145.2676,37.12695 -47.77357,14.78996 -94.7776,31.95984 -140.83596,51.4453 -46.05759,19.4854 -91.11191,41.262 -134.99414,65.2481 -32.15721,17.5769 -63.65947,36.3265 -94.44336,56.2109 l 162.47265,0 c 0,0 22.82855,-29.2495 38.06641,-41 15.23786,-11.7505 63.10444,-15.1109 81.93073,-22.1352 18.82629,-7.0244 38.03255,-20.9825 51.06927,-19.8648 13.0367,1.1177 13.1424,9.7097 20.3121,12.2315 7.1697,2.5218 13.7456,2.9721 21.6936,2.9336 7.948,-0.039 8.6003,-12.5528 15.9943,-14.1651 7.394,-1.6123 14.2535,2.0956 23,7 8.7465,4.9044 19.1942,16.458 27,24 7.8058,7.542 19.7258,12.0309 20,21 0.2742,8.9691 -15.9211,12.7262 -16,19 -0.079,6.2738 1,11 1,11 l 71.2852,0 c 0,0 -10.8718,-34.2908 -4.2852,-50 6.5866,-15.7092 24.398,-27.5482 40.0797,-33.1645 15.6817,-5.6164 31.1159,-1.4829 47.9203,0.1645 16.8044,1.6474 35.0046,8.374 52.4082,10.1883 17.4036,1.8142 37.8389,3.3482 51.5918,0.8117 13.7529,-2.5365 25.2753,-1.6481 30,-12 4.7247,-10.3519 -3.5368,-22.8017 -11.7881,-33.9773 -8.2513,-11.1756 -39.608,-14.96678 -38.2119,-28.0227 1.3961,-13.05592 23.9312,-7.03797 28.6714,-12.79362 4.7402,-5.75566 -2.0076,-6.14297 3,-13 5.0076,-6.85703 23.6574,-24.39342 32.3286,-19.20638 8.6712,5.18704 -3.1666,15.71072 -1,23 2.1666,7.28928 4.6222,16.05934 13.1581,18.38079 8.5359,2.32145 21.3438,-6.53962 27.8419,-12.38079 6.4981,-5.84117 7.4718,-12.66525 11,-19 3.5282,-6.33475 13.1024,-11.05654 10.1719,-19 -2.9305,-7.94346 -24.5678,-3.39103 -27.2442,-10.64258 -2.6764,-7.25154 8.0801,-12.10351 8.0801,-12.10351 0,0 11.05095,-2.6512 17.59169,-2.82797 C 862.67056,826.25781 880,829.14931 880,829.14931 Z"
       id="path5747"
       inkscape:connector-curvature="0"
       sodipodi:nodetypes="cccczssscczzzzzzzzzzcczzzzzzzzzzzzzzzzzccc" />
    <path
       inkscape:connector-curvature="0"
       id="path8051"
       d="m 350,887.3622 0,-75"
       style="fill:none;fill-rule:evenodd;stroke:#003046;stroke-width:3;stroke-linecap:butt;stroke-linejoin:miter;stroke-miterlimit:4;stroke-dasharray:6, 3;stroke-dashoffset:0;stroke-opacity:1" />
    <path
       style="opacity:1;fill:none;fill-opacity:1;fill-rule:evenodd;stroke:#194458;stroke-width:3;stroke-linecap:butt;stroke-linejoin:miter;stroke-miterlimit:4;stroke-dasharray:6, 3;stroke-dashoffset:0;stroke-opacity:1"
       d="m 349.5,906.3622 0,-126"
       id="path8053"
       inkscape:connector-curvature="0"
       sodipodi:nodetypes="cc" />
    <rect
       rx="10.000017"
       style="opacity:1;fill:#194458;fill-opacity:1;stroke:none;stroke-width:4.26401424;stroke-linecap:butt;stroke-linejoin:miter;stroke-miterlimit:4;stroke-dasharray:8.52802865, 4.26401433;stroke-dashoffset:0;stroke-opacity:1;marker:none"
       id="rect8055"
       width="80"
       height="50"
       x="310"
       y="731.36218"
       ry="10.000017" />
    <path
       id="path8057"
       d="m 320,734.3622 c -3.878,0 -7,3.56799 -7,8 l 0,28 c 0,4.43201 3.122,8 7,8 l 60,0 c 3.878,0 7,-3.56799 7,-8 l 0,-28 c 0,-4.43201 -3.122,-8 -7,-8 l -60,0 z m 0,2 60,0 c 2.77,0 5,2.67602 5,6 l 0,28 c 0,3.32398 -2.23,6 -5,6 l -60,0 c -2.77,0 -5,-2.67602 -5,-6 l 0,-28 c 0,-3.32398 2.23,-6 5,-6 z"
       style="opacity:1;fill:#003046;fill-opacity:1;stroke:none;stroke-width:5.0834322;stroke-linecap:butt;stroke-linejoin:miter;stroke-miterlimit:4;stroke-dasharray:10.16686384, 5.08343191;stroke-dashoffset:0;stroke-opacity:1;marker:none"
       inkscape:connector-curvature="0" />
    <rect
       ry="3.0000176"
       rx="3"
       y="743.36218"
       x="321"
       height="26.000036"
       width="24"
       id="rect8059"
       style="opacity:1;fill:#003046;fill-opacity:1;stroke:none;stroke-width:5;stroke-linecap:butt;stroke-linejoin:miter;stroke-miterlimit:4;stroke-dasharray:10, 5;stroke-dashoffset:0;stroke-opacity:1;marker:none" />
    <rect
       ry="1.0000174"
       rx="1"
       y="746.36218"
       x="349"
       height="4"
       width="30"
       id="rect8061"
       style="opacity:1;fill:#003046;fill-opacity:1;stroke:none;stroke-width:5;stroke-linecap:butt;stroke-linejoin:miter;stroke-miterlimit:4;stroke-dasharray:10, 5;stroke-dashoffset:0;stroke-opacity:1;marker:none" />
    <rect
       ry="1.0000174"
       rx="1"
       y="755.36218"
       x="349"
       height="1.9999652"
       width="30"
       id="rect8063"
       style="opacity:1;fill:#003046;fill-opacity:1;stroke:none;stroke-width:3.53550315;stroke-linecap:butt;stroke-linejoin:miter;stroke-miterlimit:4;stroke-dasharray:7.07100635, 3.53550318;stroke-dashoffset:0;stroke-opacity:1;marker:none" />
    <rect
       style="opacity:1;fill:#003046;fill-opacity:1;stroke:none;stroke-width:3.53550315;stroke-linecap:butt;stroke-linejoin:miter;stroke-miterlimit:4;stroke-dasharray:7.07100635, 3.53550318;stroke-dashoffset:0;stroke-opacity:1;marker:none"
       id="rect8065"
       width="30"
       height="1.9999652"
       x="349"
       y="758.36218"
       rx="1"
       ry="1.0000174" />
    <rect
       ry="1.0000174"
       rx="1"
       y="761.36218"
       x="349"
       height="1.9999652"
       width="30"
       id="rect8067"
       style="opacity:1;fill:#003046;fill-opacity:1;stroke:none;stroke-width:3.53550315;stroke-linecap:butt;stroke-linejoin:miter;stroke-miterlimit:4;stroke-dasharray:7.07100635, 3.53550318;stroke-dashoffset:0;stroke-opacity:1;marker:none" />
    <rect
       style="opacity:1;fill:#003046;fill-opacity:1;stroke:none;stroke-width:2.5819664;stroke-linecap:butt;stroke-linejoin:miter;stroke-miterlimit:4;stroke-dasharray:5.16393291, 2.58196646;stroke-dashoffset:0;stroke-opacity:1;marker:none"
       id="rect8069"
       width="16"
       height="1.9999652"
       x="349"
       y="764.36218"
       rx="1"
       ry="1.0000174" />
    <path
       id="path8071"
       d="m 333,747.3622 a 6.0000172,6.0000172 0 0 0 -6,6 6.0000172,6.0000172 0 0 0 6,6 6.0000172,6.0000172 0 0 0 6,-6 6.0000172,6.0000172 0 0 0 -6,-6 z m -5,12 c -1.662,0 -3,1.33799 -3,3 l 0,7 16,0 0,-7 c 0,-1.66201 -1.338,-3 -3,-3 l -0.53516,0 a 6.0000172,6.0000172 0 0 1 -4.46484,2 6.0000172,6.0000172 0 0 1 -4.46289,-2 l -0.53711,0 z"
       style="opacity:1;fill:#194458;fill-opacity:1;stroke:none;stroke-width:7.07108784;stroke-linecap:butt;stroke-linejoin:miter;stroke-miterlimit:4;stroke-dasharray:14.1421766, 7.0710883;stroke-dashoffset:0;stroke-opacity:1;marker:none"
       inkscape:connector-curvature="0" />
    <path
       sodipodi:nodetypes="cc"
       inkscape:connector-curvature="0"
       id="path8073"
       d="m 349.5,942.3622 0,-36"
       style="fill:none;fill-rule:evenodd;stroke:#194458;stroke-width:3;stroke-linecap:butt;stroke-linejoin:miter;stroke-miterlimit:4;stroke-dasharray:6, 3;stroke-dashoffset:0;stroke-opacity:1" />
    <rect
       style="opacity:0.5;fill:#011017;fill-opacity:1;stroke:none;stroke-width:3.19801068;stroke-linecap:butt;stroke-linejoin:miter;stroke-miterlimit:4;stroke-dasharray:6.39602149, 3.19801075;stroke-dashoffset:0;stroke-opacity:1;marker:none"
       id="rect8075"
       width="60"
       height="37.5"
       x="460"
       y="787.86218"
       ry="7.5000129"
       rx="7.5000129" />
    <rect
       ry="7.5000129"
       y="787.86218"
       x="460"
       height="37.5"
       width="60"
       id="rect8077"
       style="opacity:1;fill:#000000;fill-opacity:0;stroke:none;stroke-width:3.19801068;stroke-linecap:butt;stroke-linejoin:miter;stroke-miterlimit:4;stroke-dasharray:6.39602149, 3.19801075;stroke-dashoffset:0;stroke-opacity:1;marker:none"
       rx="7.5000129" />
    <path
       inkscape:connector-curvature="0"
       id="path8079"
       d="m 467.5,790.1122 c -2.9085,0 -5.25,2.67599 -5.25,6 l 0,21 c 0,3.324 2.3415,6 5.25,6 l 45,0 c 2.9085,0 5.25,-2.676 5.25,-6 l 0,-21 c 0,-3.32401 -2.3415,-6 -5.25,-6 z m 0,1.5 45,0 c 2.0775,0 3.75,2.00701 3.75,4.5 l 0,21 c 0,2.49298 -1.6725,4.5 -3.75,4.5 l -45,0 c -2.0775,0 -3.75,-2.00702 -3.75,-4.5 l 0,-21 c 0,-2.49299 1.6725,-4.5 3.75,-4.5 z"
       style="opacity:1;fill:#003046;fill-opacity:1;stroke:none;stroke-width:3.81257415;stroke-linecap:butt;stroke-linejoin:miter;stroke-miterlimit:4;stroke-dasharray:7.62514788, 3.81257393;stroke-dashoffset:0;stroke-opacity:1;marker:none"
       sodipodi:nodetypes="ssssssssssssssssss" />
    <rect
       style="opacity:1;fill:#003046;fill-opacity:1;stroke:none;stroke-width:3.38020635;stroke-linecap:butt;stroke-linejoin:miter;stroke-miterlimit:4;stroke-dasharray:6.76041334, 3.38020667;stroke-dashoffset:0;stroke-opacity:1;marker:none"
       id="rect8081"
       width="18"
       height="19.500027"
       x="468.25"
       y="796.86218"
       rx="2.25"
       ry="2.2500134" />
    <rect
       style="opacity:1;fill:#003046;fill-opacity:1;stroke:none;stroke-width:3.75;stroke-linecap:butt;stroke-linejoin:miter;stroke-miterlimit:4;stroke-dasharray:7.5, 3.75;stroke-dashoffset:0;stroke-opacity:1;marker:none"
       id="rect8083"
       width="22.5"
       height="3"
       x="489.25"
       y="799.11218"
       rx="0.75"
       ry="0.75001305" />
    <rect
       style="opacity:1;fill:#003046;fill-opacity:1;stroke:none;stroke-width:2.6516273;stroke-linecap:butt;stroke-linejoin:miter;stroke-miterlimit:4;stroke-dasharray:5.30325476, 2.65162739;stroke-dashoffset:0;stroke-opacity:1;marker:none"
       id="rect8085"
       width="22.5"
       height="1.4999739"
       x="489.25"
       y="805.86218"
       rx="0.75"
       ry="0.75001305" />
    <rect
       ry="0.75001305"
       rx="0.75"
       y="808.11218"
       x="489.25"
       height="1.4999739"
       width="22.5"
       id="rect8087"
       style="opacity:1;fill:#003046;fill-opacity:1;stroke:none;stroke-width:2.6516273;stroke-linecap:butt;stroke-linejoin:miter;stroke-miterlimit:4;stroke-dasharray:5.30325476, 2.65162739;stroke-dashoffset:0;stroke-opacity:1;marker:none" />
    <rect
       style="opacity:1;fill:#003046;fill-opacity:1;stroke:none;stroke-width:2.6516273;stroke-linecap:butt;stroke-linejoin:miter;stroke-miterlimit:4;stroke-dasharray:5.30325476, 2.65162739;stroke-dashoffset:0;stroke-opacity:1;marker:none"
       id="rect8089"
       width="22.5"
       height="1.4999739"
       x="489.25"
       y="810.36218"
       rx="0.75"
       ry="0.75001305" />
    <rect
       ry="0.75001305"
       rx="0.75"
       y="812.61218"
       x="489.25"
       height="1.4999739"
       width="12"
       id="rect8091"
       style="opacity:1;fill:#003046;fill-opacity:1;stroke:none;stroke-width:1.9364748;stroke-linecap:butt;stroke-linejoin:miter;stroke-miterlimit:4;stroke-dasharray:3.87294968, 1.93647484;stroke-dashoffset:0;stroke-opacity:1;marker:none" />
    <path
       inkscape:connector-curvature="0"
       id="path8093"
       d="m 477.25,799.8622 c -2.48528,0 -4.49999,2.01472 -4.5,4.5 10e-6,2.48527 2.01472,4.49999 4.5,4.5 2.48527,-10e-6 4.49999,-2.01473 4.5,-4.5 -10e-6,-2.48528 -2.01473,-4.5 -4.5,-4.5 z m -3.75,9 c -1.2465,0 -2.25,1.00349 -2.25,2.25 l 0,5.25 12,0 0,-5.25 c 0,-1.24651 -1.0035,-2.25 -2.25,-2.25 l -0.40137,0 c -0.85241,0.95303 -2.07001,1.49844 -3.34863,1.5 -1.27811,-0.002 -2.49509,-0.54735 -3.34717,-1.5 z"
       style="opacity:1;fill:#01202f;fill-opacity:1;stroke:none;stroke-width:5.30331612;stroke-linecap:butt;stroke-linejoin:miter;stroke-miterlimit:4;stroke-dasharray:10.60663245, 5.30331623;stroke-dashoffset:0;stroke-opacity:1;marker:none"
       sodipodi:nodetypes="sssssssccsscccs" />
    <circle
       r="7.5000172"
       cy="938.86218"
       cx="349.5"
       id="circle8047"
       style="opacity:1;fill:#194458;fill-opacity:1;stroke:none;stroke-width:0.60000139px;stroke-linecap:butt;stroke-linejoin:miter;stroke-miterlimit:4;stroke-dasharray:none;stroke-dashoffset:0;stroke-opacity:1;marker:none" />
    <circle
       style="opacity:1;fill:#399a64;fill-opacity:1;stroke:none;stroke-width:0.35999864px;stroke-linecap:butt;stroke-linejoin:miter;stroke-miterlimit:4;stroke-dasharray:none;stroke-dashoffset:0;stroke-opacity:1;marker:none"
       id="circle8049"
       cx="349.5"
       cy="938.86218"
       r="4.4999828" />
    <g
       id="g8168"
       clip-path="url(#clipPath8260)"
       transform="translate(5)">
      <rect
         rx="10.000017"
         style="opacity:0.1;fill:#ffffff;fill-opacity:1;stroke:none;stroke-width:4.26401424;stroke-linecap:butt;stroke-linejoin:miter;stroke-miterlimit:4;stroke-dasharray:8.52802865, 4.26401433;stroke-dashoffset:0;stroke-opacity:1;marker:none"
         id="rect8097"
         width="80"
         height="50"
         x="854"
         y="730.36218"
         ry="10.000017" />
      <path
         id="path8099"
         d="m 864,733.3622 c -3.878,0 -7,3.56799 -7,8 l 0,28 c 0,4.43201 3.122,8 7,8 l 60,0 c 3.878,0 7,-3.56799 7,-8 l 0,-28 c 0,-4.43201 -3.122,-8 -7,-8 l -60,0 z m 0,2 60,0 c 2.77,0 5,2.67602 5,6 l 0,28 c 0,3.32398 -2.23,6 -5,6 l -60,0 c -2.77,0 -5,-2.67602 -5,-6 l 0,-28 c 0,-3.32398 2.23,-6 5,-6 z"
         style="opacity:1;fill:#003046;fill-opacity:1;stroke:none;stroke-width:5.0834322;stroke-linecap:butt;stroke-linejoin:miter;stroke-miterlimit:4;stroke-dasharray:10.16686384, 5.08343191;stroke-dashoffset:0;stroke-opacity:1;marker:none"
         inkscape:connector-curvature="0" />
      <rect
         ry="3.0000176"
         rx="3"
         y="742.36218"
         x="865"
         height="26.000036"
         width="24"
         id="rect8101"
         style="opacity:1;fill:#003046;fill-opacity:1;stroke:none;stroke-width:5;stroke-linecap:butt;stroke-linejoin:miter;stroke-miterlimit:4;stroke-dasharray:10, 5;stroke-dashoffset:0;stroke-opacity:1;marker:none" />
      <rect
         ry="1.0000174"
         rx="1"
         y="745.36218"
         x="893"
         height="4"
         width="30"
         id="rect8103"
         style="opacity:1;fill:#003046;fill-opacity:1;stroke:none;stroke-width:5;stroke-linecap:butt;stroke-linejoin:miter;stroke-miterlimit:4;stroke-dasharray:10, 5;stroke-dashoffset:0;stroke-opacity:1;marker:none" />
      <rect
         ry="1.0000174"
         rx="1"
         y="754.36218"
         x="893"
         height="1.9999652"
         width="30"
         id="rect8105"
         style="opacity:1;fill:#003046;fill-opacity:1;stroke:none;stroke-width:3.53550315;stroke-linecap:butt;stroke-linejoin:miter;stroke-miterlimit:4;stroke-dasharray:7.07100635, 3.53550318;stroke-dashoffset:0;stroke-opacity:1;marker:none" />
      <rect
         style="opacity:1;fill:#003046;fill-opacity:1;stroke:none;stroke-width:3.53550315;stroke-linecap:butt;stroke-linejoin:miter;stroke-miterlimit:4;stroke-dasharray:7.07100635, 3.53550318;stroke-dashoffset:0;stroke-opacity:1;marker:none"
         id="rect8107"
         width="30"
         height="1.9999652"
         x="893"
         y="757.36218"
         rx="1"
         ry="1.0000174" />
      <rect
         ry="1.0000174"
         rx="1"
         y="760.36218"
         x="893"
         height="1.9999652"
         width="30"
         id="rect8109"
         style="opacity:1;fill:#003046;fill-opacity:1;stroke:none;stroke-width:3.53550315;stroke-linecap:butt;stroke-linejoin:miter;stroke-miterlimit:4;stroke-dasharray:7.07100635, 3.53550318;stroke-dashoffset:0;stroke-opacity:1;marker:none" />
      <rect
         style="opacity:1;fill:#003046;fill-opacity:1;stroke:none;stroke-width:2.5819664;stroke-linecap:butt;stroke-linejoin:miter;stroke-miterlimit:4;stroke-dasharray:5.16393291, 2.58196646;stroke-dashoffset:0;stroke-opacity:1;marker:none"
         id="rect8111"
         width="16"
         height="1.9999652"
         x="893"
         y="763.36218"
         rx="1"
         ry="1.0000174" />
      <path
         id="path8113"
         d="m 877,746.3622 a 6.0000172,6.0000172 0 0 0 -6,6 6.0000172,6.0000172 0 0 0 6,6 6.0000172,6.0000172 0 0 0 6,-6 6.0000172,6.0000172 0 0 0 -6,-6 z m -5,12 c -1.662,0 -3,1.33799 -3,3 l 0,7 16,0 0,-7 c 0,-1.66201 -1.338,-3 -3,-3 l -0.53516,0 a 6.0000172,6.0000172 0 0 1 -4.46484,2 6.0000172,6.0000172 0 0 1 -4.46289,-2 l -0.53711,0 z"
         style="opacity:1;fill:#194458;fill-opacity:1;stroke:none;stroke-width:7.07108784;stroke-linecap:butt;stroke-linejoin:miter;stroke-miterlimit:4;stroke-dasharray:14.1421766, 7.0710883;stroke-dashoffset:0;stroke-opacity:1;marker:none"
         inkscape:connector-curvature="0" />
    </g>
    <path
       style="fill:none;fill-rule:evenodd;stroke:#003046;stroke-width:3;stroke-linecap:butt;stroke-linejoin:miter;stroke-miterlimit:4;stroke-dasharray:6, 3;stroke-dashoffset:0;stroke-opacity:1"
       d="m 670,818.3622 0,-75"
       id="path8206"
       inkscape:connector-curvature="0" />
    <path
       sodipodi:nodetypes="cc"
       inkscape:connector-curvature="0"
       id="path8208"
       d="m 669.5,837.3622 0,-136"
       style="opacity:1;fill:none;fill-opacity:1;fill-rule:evenodd;stroke:#194458;stroke-width:3;stroke-linecap:butt;stroke-linejoin:miter;stroke-miterlimit:4;stroke-dasharray:6, 3;stroke-dashoffset:0;stroke-opacity:1" />
    <rect
       ry="10.000017"
       y="652.36218"
       x="630"
       height="50"
       width="80"
       id="rect8210"
       style="opacity:1;fill:#194458;fill-opacity:1;stroke:none;stroke-width:4.26401424;stroke-linecap:butt;stroke-linejoin:miter;stroke-miterlimit:4;stroke-dasharray:8.52802865, 4.26401433;stroke-dashoffset:0;stroke-opacity:1;marker:none"
       rx="10.000017" />
    <path
       inkscape:connector-curvature="0"
       style="opacity:1;fill:#003046;fill-opacity:1;stroke:none;stroke-width:5.0834322;stroke-linecap:butt;stroke-linejoin:miter;stroke-miterlimit:4;stroke-dasharray:10.16686384, 5.08343191;stroke-dashoffset:0;stroke-opacity:1;marker:none"
       d="m 640,655.3622 c -3.878,0 -7,3.56799 -7,8 l 0,28 c 0,4.43201 3.122,8 7,8 l 60,0 c 3.878,0 7,-3.56799 7,-8 l 0,-28 c 0,-4.43201 -3.122,-8 -7,-8 l -60,0 z m 0,2 60,0 c 2.77,0 5,2.67602 5,6 l 0,28 c 0,3.32398 -2.23,6 -5,6 l -60,0 c -2.77,0 -5,-2.67602 -5,-6 l 0,-28 c 0,-3.32398 2.23,-6 5,-6 z"
       id="path8212" />
    <rect
       style="opacity:1;fill:#003046;fill-opacity:1;stroke:none;stroke-width:5;stroke-linecap:butt;stroke-linejoin:miter;stroke-miterlimit:4;stroke-dasharray:10, 5;stroke-dashoffset:0;stroke-opacity:1;marker:none"
       id="rect8214"
       width="24"
       height="26.000036"
       x="641"
       y="664.36218"
       rx="3"
       ry="3.0000176" />
    <rect
       style="opacity:1;fill:#003046;fill-opacity:1;stroke:none;stroke-width:5;stroke-linecap:butt;stroke-linejoin:miter;stroke-miterlimit:4;stroke-dasharray:10, 5;stroke-dashoffset:0;stroke-opacity:1;marker:none"
       id="rect8216"
       width="30"
       height="4"
       x="669"
       y="667.36218"
       rx="1"
       ry="1.0000174" />
    <rect
       style="opacity:1;fill:#003046;fill-opacity:1;stroke:none;stroke-width:3.53550315;stroke-linecap:butt;stroke-linejoin:miter;stroke-miterlimit:4;stroke-dasharray:7.07100635, 3.53550318;stroke-dashoffset:0;stroke-opacity:1;marker:none"
       id="rect8218"
       width="30"
       height="1.9999652"
       x="669"
       y="676.36218"
       rx="1"
       ry="1.0000174" />
    <rect
       ry="1.0000174"
       rx="1"
       y="679.36218"
       x="669"
       height="1.9999652"
       width="30"
       id="rect8220"
       style="opacity:1;fill:#003046;fill-opacity:1;stroke:none;stroke-width:3.53550315;stroke-linecap:butt;stroke-linejoin:miter;stroke-miterlimit:4;stroke-dasharray:7.07100635, 3.53550318;stroke-dashoffset:0;stroke-opacity:1;marker:none" />
    <rect
       style="opacity:1;fill:#003046;fill-opacity:1;stroke:none;stroke-width:3.53550315;stroke-linecap:butt;stroke-linejoin:miter;stroke-miterlimit:4;stroke-dasharray:7.07100635, 3.53550318;stroke-dashoffset:0;stroke-opacity:1;marker:none"
       id="rect8222"
       width="30"
       height="1.9999652"
       x="669"
       y="682.36218"
       rx="1"
       ry="1.0000174" />
    <rect
       ry="1.0000174"
       rx="1"
       y="685.36218"
       x="669"
       height="1.9999652"
       width="16"
       id="rect8224"
       style="opacity:1;fill:#003046;fill-opacity:1;stroke:none;stroke-width:2.5819664;stroke-linecap:butt;stroke-linejoin:miter;stroke-miterlimit:4;stroke-dasharray:5.16393291, 2.58196646;stroke-dashoffset:0;stroke-opacity:1;marker:none" />
    <path
       inkscape:connector-curvature="0"
       style="opacity:1;fill:#194458;fill-opacity:1;stroke:none;stroke-width:7.07108784;stroke-linecap:butt;stroke-linejoin:miter;stroke-miterlimit:4;stroke-dasharray:14.1421766, 7.0710883;stroke-dashoffset:0;stroke-opacity:1;marker:none"
       d="m 653,668.3622 a 6.0000172,6.0000172 0 0 0 -6,6 6.0000172,6.0000172 0 0 0 6,6 6.0000172,6.0000172 0 0 0 6,-6 6.0000172,6.0000172 0 0 0 -6,-6 z m -5,12 c -1.662,0 -3,1.33799 -3,3 l 0,7 16,0 0,-7 c 0,-1.66201 -1.338,-3 -3,-3 l -0.53516,0 a 6.0000172,6.0000172 0 0 1 -4.46484,2 6.0000172,6.0000172 0 0 1 -4.46289,-2 l -0.53711,0 z"
       id="path8226" />
    <path
       style="fill:none;fill-rule:evenodd;stroke:#194458;stroke-width:3;stroke-linecap:butt;stroke-linejoin:miter;stroke-miterlimit:4;stroke-dasharray:6, 3;stroke-dashoffset:0;stroke-opacity:1"
       d="m 669.5,883.3622 0,-46"
       id="path8228"
       inkscape:connector-curvature="0"
       sodipodi:nodetypes="cc" />
    <circle
       style="opacity:1;fill:#194458;fill-opacity:1;stroke:none;stroke-width:0.60000139px;stroke-linecap:butt;stroke-linejoin:miter;stroke-miterlimit:4;stroke-dasharray:none;stroke-dashoffset:0;stroke-opacity:1;marker:none"
       id="circle8230"
       cx="669.5"
       cy="889.86218"
       r="7.5000172" />
    <circle
       r="4.4999828"
       cy="889.86218"
       cx="669.5"
       id="circle8232"
       style="opacity:1;fill:#399a64;fill-opacity:1;stroke:none;stroke-width:0.35999864px;stroke-linecap:butt;stroke-linejoin:miter;stroke-miterlimit:4;stroke-dasharray:none;stroke-dashoffset:0;stroke-opacity:1;marker:none" />
  </g>
</svg>
