<?xml version="1.0" encoding="UTF-8" standalone="no"?>
<!-- Created with Inkscape (http://www.inkscape.org/) -->

<svg
   xmlns:dc="http://purl.org/dc/elements/1.1/"
   xmlns:cc="http://creativecommons.org/ns#"
   xmlns:rdf="http://www.w3.org/1999/02/22-rdf-syntax-ns#"
   xmlns:svg="http://www.w3.org/2000/svg"
   xmlns="http://www.w3.org/2000/svg"
   xmlns:sodipodi="http://sodipodi.sourceforge.net/DTD/sodipodi-0.dtd"
   xmlns:inkscape="http://www.inkscape.org/namespaces/inkscape"
   width="480"
   height="480"
   id="svg5738"
   version="1.1"
   inkscape:version="0.91+devel+osxmenu r12911"
   sodipodi:docname="twitter-card.svg"
   viewBox="0 0 480 480"
   inkscape:export-filename="/Users/tristen/dev/mapbox/census/img/twitter-card.png"
   inkscape:export-xdpi="96"
   inkscape:export-ydpi="96">
  <defs
     id="defs5740" />
  <sodipodi:namedview
     id="base"
     pagecolor="#ffffff"
     bordercolor="#666666"
     borderopacity="1.0"
     inkscape:pageopacity="0.0"
     inkscape:pageshadow="2"
     inkscape:zoom="0.70710678"
     inkscape:cx="200"
     inkscape:cy="240.61019"
     inkscape:document-units="px"
     inkscape:current-layer="layer1"
     showgrid="false"
     inkscape:window-width="1280"
     inkscape:window-height="751"
     inkscape:window-x="20"
     inkscape:window-y="23"
     inkscape:window-maximized="0"
     inkscape:snap-smooth-nodes="true"
     inkscape:object-nodes="true">
    <inkscape:grid
       type="xygrid"
       id="grid5746"
       empspacing="5"
       visible="true"
       enabled="true"
       snapvisiblegridlinesonly="true" />
  </sodipodi:namedview>
  <metadata
     id="metadata5743">
    <rdf:RDF>
      <cc:Work
         rdf:about="">
        <dc:format>image/svg+xml</dc:format>
        <dc:type
           rdf:resource="http://purl.org/dc/dcmitype/StillImage" />
        <dc:title />
      </cc:Work>
    </rdf:RDF>
  </metadata>
  <g
     inkscape:label="Layer 1"
     inkscape:groupmode="layer"
     id="layer1"
     transform="translate(0,-572.3622)">
    <rect
       style="opacity:1;fill:#003046;fill-opacity:1;stroke:none;stroke-width:0;stroke-linecap:round;stroke-linejoin:round;stroke-miterlimit:4;stroke-dasharray:none;stroke-dashoffset:0;stroke-opacity:1;marker:none"
       id="rect5728"
       width="480"
       height="480"
       x="0"
       y="572.36218" />
    <g
       id="g12132"
       transform="matrix(2.9807692,0,0,2.9807692,390.13398,-1547.2229)">
      <path
         sodipodi:nodetypes="cccccccsccccsssssccssscccssccssccccsscscsccscccssccscscscccccccc"
         inkscape:connector-curvature="0"
         id="rect14751"
         d="m -102.36753,739.60275 7.999996,32 -7.999996,16 7.999996,24 -7.999996,24 7.999996,0 32.000002,-32 c -5.059601,-6.6994 -8.000001,-14.9576 -8.000001,-24 0,-15.1486 8.585481,-28.2104 21.000001,-35 l -5,-5 -24.000001,8 z m 71.999999,12 c -15.463961,0 -28.000001,12.5352 -28.000001,28 0,15.4638 12.53604,28 28.000001,28 15.46402,0 28.0000008,-12.5362 28.0000008,-28 0,-15.4648 -12.5359808,-28 -28.0000008,-28 z m -14.000001,18 4,0 0,14 c 0,2 0,2 2,2 2.000001,0 2.000001,0 2.000001,-2 l 0,-14 4,0 0,16 c 0,2 -2,4 -4,4 l -4.000001,0 c -2,0 -4,-2 -4,-4 z m 20.000001,0 4,0 c 4,0 4,4 4,4 l 0,2 -4,0 0,-2 -2,0 c -2,0 -2,0 -2,2 l 0,2 4,0 c 4,0 4,4 4,4 l 0,4 c 0,4 -4,4 -4,4 l -4,0 c 0,0 -4,0 -4,-4 l 0,-2 4,0 0,2 2,0 c 2,0 2,0 2,-2 l 0,-2 -4,0 c 0,0 -4,0 -4,-4 l 0,-4 c 0,0 0,-4 4,-4 z m 22.2500009,38.25 c -7.2387403,7.2374 -17.2042609,11.75 -28.2500009,11.75 -9.042541,0 -17.300501,-2.9408 -24.000001,-8 l -32.000001,32 16,0 16.000001,-8 16,8 32.0000017,-8 8.0000003,-24 z"
         style="color:#000000;display:inline;overflow:visible;visibility:visible;fill:#5ca95b;fill-opacity:1;fill-rule:nonzero;stroke:none;stroke-width:16;marker:none;enable-background:accumulate" />
      <path
         sodipodi:nodetypes="ccccssssssscccc"
         inkscape:connector-curvature="0"
         id="path6676"
         d="m -38.367532,843.60275 32.0000017,-8 8.0000003,-24 -3.7500001,-3.75 c -1.8096861,1.8094 -3.7892582,3.4498 -5.9140623,4.8906 -2.1248056,1.4408 -4.3966866,2.6828 -6.7851566,3.6992 -2.38847,1.0164 -4.895414,1.8076 -7.496094,2.3438 -2.60068,0.5362 -5.293252,0.8164 -8.054688,0.8164 -2.260636,0 -4.470624,-0.184 -6.621094,-0.539 -2.150471,-0.3548 -4.241691,-0.8788 -6.257813,-1.5626 -2.016122,-0.6838 -3.958816,-1.5284 -5.816406,-2.5156 -1.857592,-0.9872 -3.629812,-2.118 -5.304688,-3.3828 l -13.117189,13.1172 29.117189,2.8828 z"
         style="fill:#399a64;fill-opacity:1;fill-rule:evenodd;stroke:none;stroke-width:2px;stroke-linecap:butt;stroke-linejoin:miter;stroke-opacity:1" />
    </g>
  </g>
</svg>
